<svg xmlns="http://www.w3.org/2000/svg" xmlns:xlink="http://www.w3.org/1999/xlink" width="5000" zoomAndPan="magnify" viewBox="0 0 3750 3749.999967" height="5000" preserveAspectRatio="xMidYMid meet" version="1.0"><defs><clipPath id="9c8438b830"><path d="M 1644.816406 696.148438 L 2099.582031 696.148438 L 2099.582031 1150.914062 L 1644.816406 1150.914062 Z M 1644.816406 696.148438 " clip-rule="nonzero"/></clipPath><clipPath id="17a1fba4be"><path d="M 1872.199219 696.148438 C 1746.621094 696.148438 1644.816406 797.953125 1644.816406 923.53125 C 1644.816406 1049.109375 1746.621094 1150.914062 1872.199219 1150.914062 C 1997.777344 1150.914062 2099.582031 1049.109375 2099.582031 923.53125 C 2099.582031 797.953125 1997.777344 696.148438 1872.199219 696.148438 Z M 1872.199219 696.148438 " clip-rule="nonzero"/></clipPath><clipPath id="29a7f8c0cd"><path d="M 1644.816406 1646.917969 L 2099.582031 1646.917969 L 2099.582031 2101.683594 L 1644.816406 2101.683594 Z M 1644.816406 1646.917969 " clip-rule="nonzero"/></clipPath><clipPath id="323d62596e"><path d="M 1872.199219 1646.917969 C 1746.621094 1646.917969 1644.816406 1748.71875 1644.816406 1874.300781 C 1644.816406 1999.878906 1746.621094 2101.683594 1872.199219 2101.683594 C 1997.777344 2101.683594 2099.582031 1999.878906 2099.582031 1874.300781 C 2099.582031 1748.71875 1997.777344 1646.917969 1872.199219 1646.917969 Z M 1872.199219 1646.917969 " clip-rule="nonzero"/></clipPath><clipPath id="70ab8ce74e"><path d="M 1644.816406 2599.085938 L 2099.582031 2599.085938 L 2099.582031 3053.851562 L 1644.816406 3053.851562 Z M 1644.816406 2599.085938 " clip-rule="nonzero"/></clipPath><clipPath id="9c89e9e698"><path d="M 1872.199219 2599.085938 C 1746.621094 2599.085938 1644.816406 2700.890625 1644.816406 2826.46875 C 1644.816406 2952.046875 1746.621094 3053.851562 1872.199219 3053.851562 C 1997.777344 3053.851562 2099.582031 2952.046875 2099.582031 2826.46875 C 2099.582031 2700.890625 1997.777344 2599.085938 1872.199219 2599.085938 Z M 1872.199219 2599.085938 " clip-rule="nonzero"/></clipPath><clipPath id="0d7f04e3f3"><path d="M 0 1648.316406 L 454.765625 1648.316406 L 454.765625 2103.082031 L 0 2103.082031 Z M 0 1648.316406 " clip-rule="nonzero"/></clipPath><clipPath id="742e570953"><path d="M 227.382812 1648.316406 C 101.800781 1648.316406 0 1750.121094 0 1875.699219 C 0 2001.28125 101.800781 2103.082031 227.382812 2103.082031 C 352.960938 2103.082031 454.765625 2001.28125 454.765625 1875.699219 C 454.765625 1750.121094 352.960938 1648.316406 227.382812 1648.316406 Z M 227.382812 1648.316406 " clip-rule="nonzero"/></clipPath><clipPath id="b20ea890e4"><path d="M 811.160156 2122.300781 L 1265.925781 2122.300781 L 1265.925781 2577.066406 L 811.160156 2577.066406 Z M 811.160156 2122.300781 " clip-rule="nonzero"/></clipPath><clipPath id="05db56d51e"><path d="M 1038.542969 2122.300781 C 912.960938 2122.300781 811.160156 2224.105469 811.160156 2349.683594 C 811.160156 2475.261719 912.960938 2577.066406 1038.542969 2577.066406 C 1164.121094 2577.066406 1265.925781 2475.261719 1265.925781 2349.683594 C 1265.925781 2224.105469 1164.121094 2122.300781 1038.542969 2122.300781 Z M 1038.542969 2122.300781 " clip-rule="nonzero"/></clipPath><clipPath id="85f33b75a9"><path d="M 811.160156 1171.535156 L 1265.925781 1171.535156 L 1265.925781 1626.296875 L 811.160156 1626.296875 Z M 811.160156 1171.535156 " clip-rule="nonzero"/></clipPath><clipPath id="ed9f933bff"><path d="M 1038.542969 1171.535156 C 912.960938 1171.535156 811.160156 1273.335938 811.160156 1398.914062 C 811.160156 1524.496094 912.960938 1626.296875 1038.542969 1626.296875 C 1164.121094 1626.296875 1265.925781 1524.496094 1265.925781 1398.914062 C 1265.925781 1273.335938 1164.121094 1171.535156 1038.542969 1171.535156 Z M 1038.542969 1171.535156 " clip-rule="nonzero"/></clipPath><clipPath id="7262a6d41c"><path d="M 2484.074219 2120.902344 L 2938.839844 2120.902344 L 2938.839844 2575.664062 L 2484.074219 2575.664062 Z M 2484.074219 2120.902344 " clip-rule="nonzero"/></clipPath><clipPath id="50a09a867b"><path d="M 2711.457031 2120.902344 C 2585.878906 2120.902344 2484.074219 2222.703125 2484.074219 2348.285156 C 2484.074219 2473.863281 2585.878906 2575.664062 2711.457031 2575.664062 C 2837.039062 2575.664062 2938.839844 2473.863281 2938.839844 2348.285156 C 2938.839844 2222.703125 2837.039062 2120.902344 2711.457031 2120.902344 Z M 2711.457031 2120.902344 " clip-rule="nonzero"/></clipPath><clipPath id="c4e09d9181"><path d="M 2484.074219 1170.132812 L 2938.839844 1170.132812 L 2938.839844 1624.898438 L 2484.074219 1624.898438 Z M 2484.074219 1170.132812 " clip-rule="nonzero"/></clipPath><clipPath id="f529d7260d"><path d="M 2711.457031 1170.132812 C 2585.878906 1170.132812 2484.074219 1271.933594 2484.074219 1397.515625 C 2484.074219 1523.09375 2585.878906 1624.898438 2711.457031 1624.898438 C 2837.039062 1624.898438 2938.839844 1523.09375 2938.839844 1397.515625 C 2938.839844 1271.933594 2837.039062 1170.132812 2711.457031 1170.132812 Z M 2711.457031 1170.132812 " clip-rule="nonzero"/></clipPath><clipPath id="f45697ce4a"><path d="M 3295.234375 1649.71875 L 3750 1649.71875 L 3750 2104.484375 L 3295.234375 2104.484375 Z M 3295.234375 1649.71875 " clip-rule="nonzero"/></clipPath><clipPath id="585f953e60"><path d="M 3522.617188 1649.71875 C 3397.039062 1649.71875 3295.234375 1751.519531 3295.234375 1877.101562 C 3295.234375 2002.679688 3397.039062 2104.484375 3522.617188 2104.484375 C 3648.195312 2104.484375 3750 2002.679688 3750 1877.101562 C 3750 1751.519531 3648.195312 1649.71875 3522.617188 1649.71875 Z M 3522.617188 1649.71875 " clip-rule="nonzero"/></clipPath></defs><g clip-path="url(#9c8438b830)"><g clip-path="url(#17a1fba4be)"><path fill="#ffffff" d="M 1644.816406 696.148438 L 2099.582031 696.148438 L 2099.582031 1150.914062 L 1644.816406 1150.914062 Z M 1644.816406 696.148438 " fill-opacity="1" fill-rule="nonzero"/></g></g><g clip-path="url(#29a7f8c0cd)"><g clip-path="url(#323d62596e)"><path fill="#ffffff" d="M 1644.816406 1646.917969 L 2099.582031 1646.917969 L 2099.582031 2101.683594 L 1644.816406 2101.683594 Z M 1644.816406 1646.917969 " fill-opacity="1" fill-rule="nonzero"/></g></g><g clip-path="url(#70ab8ce74e)"><g clip-path="url(#9c89e9e698)"><path fill="#ffffff" d="M 1644.816406 2599.085938 L 2099.582031 2599.085938 L 2099.582031 3053.851562 L 1644.816406 3053.851562 Z M 1644.816406 2599.085938 " fill-opacity="1" fill-rule="nonzero"/></g></g><g clip-path="url(#0d7f04e3f3)"><g clip-path="url(#742e570953)"><path fill="#ffffff" d="M 0 1648.316406 L 454.765625 1648.316406 L 454.765625 2103.082031 L 0 2103.082031 Z M 0 1648.316406 " fill-opacity="1" fill-rule="nonzero"/></g></g><g clip-path="url(#b20ea890e4)"><g clip-path="url(#05db56d51e)"><path fill="#ffffff" d="M 811.160156 2122.300781 L 1265.925781 2122.300781 L 1265.925781 2577.066406 L 811.160156 2577.066406 Z M 811.160156 2122.300781 " fill-opacity="1" fill-rule="nonzero"/></g></g><g clip-path="url(#85f33b75a9)"><g clip-path="url(#ed9f933bff)"><path fill="#ffffff" d="M 811.160156 1171.535156 L 1265.925781 1171.535156 L 1265.925781 1626.296875 L 811.160156 1626.296875 Z M 811.160156 1171.535156 " fill-opacity="1" fill-rule="nonzero"/></g></g><g clip-path="url(#7262a6d41c)"><g clip-path="url(#50a09a867b)"><path fill="#ffffff" d="M 2484.074219 2120.902344 L 2938.839844 2120.902344 L 2938.839844 2575.664062 L 2484.074219 2575.664062 Z M 2484.074219 2120.902344 " fill-opacity="1" fill-rule="nonzero"/></g></g><g clip-path="url(#c4e09d9181)"><g clip-path="url(#f529d7260d)"><path fill="#ffffff" d="M 2484.074219 1170.132812 L 2938.839844 1170.132812 L 2938.839844 1624.898438 L 2484.074219 1624.898438 Z M 2484.074219 1170.132812 " fill-opacity="1" fill-rule="nonzero"/></g></g><g clip-path="url(#f45697ce4a)"><g clip-path="url(#585f953e60)"><path fill="#ffffff" d="M 3295.234375 1649.71875 L 3750 1649.71875 L 3750 2104.484375 L 3295.234375 2104.484375 Z M 3295.234375 1649.71875 " fill-opacity="1" fill-rule="nonzero"/></g></g></svg>